<svg width="148" height="149" viewBox="0 0 148 149" fill="none" xmlns="http://www.w3.org/2000/svg">
<path fill-rule="evenodd" clip-rule="evenodd" d="M74 148.5C114.869 148.5 148 115.369 148 74.5C148 33.6309 114.869 0.5 74 0.5C33.1309 0.5 0 33.6309 0 74.5C0 115.369 33.1309 148.5 74 148.5ZM89.6247 99.0744C91.824 101.841 94.463 104.972 94.463 104.972C110.664 104.462 116.895 93.9052 116.895 93.9052C116.895 70.4612 106.339 51.4583 106.339 51.4583C95.7825 43.5951 85.7393 43.8136 85.7393 43.8136L84.713 44.9785C97.1754 48.7645 102.967 54.2251 102.967 54.2251C95.3428 50.075 87.8652 48.0364 80.9013 47.2355C75.623 46.6531 70.5648 46.7987 66.0932 47.3811C65.7092 47.3811 65.3809 47.4366 65.011 47.4992C64.9573 47.5083 64.9028 47.5175 64.8471 47.5267C62.2811 47.7452 56.0501 48.6917 48.2062 52.1136C45.4939 53.3513 43.8811 54.2251 43.8811 54.2251C43.8811 54.2251 49.9656 48.4732 63.1609 44.6872L62.4279 43.8136C62.4279 43.8136 52.3847 43.5951 41.8285 51.4583C41.8285 51.4583 31.2723 70.4612 31.2723 93.9052C31.2723 93.9052 37.4301 104.462 53.6309 104.972C53.6309 104.972 56.3433 101.696 58.5425 98.9288C49.2325 96.1623 45.7138 90.3375 45.7138 90.3375C45.7138 90.3375 46.4469 90.8473 47.7664 91.5754C47.8397 91.6482 47.913 91.7209 48.0596 91.7937C48.1694 91.8664 48.2791 91.9209 48.3888 91.9754C48.499 92.0301 48.6092 92.0848 48.7194 92.1579C50.552 93.1771 52.3847 93.978 54.0708 94.6333C57.0764 95.7981 60.6684 96.9632 64.8471 97.7641C70.345 98.7833 76.796 99.1475 83.8336 97.8368C87.279 97.2543 90.7978 96.2351 94.463 94.7061C97.0286 93.7597 99.8878 92.3763 102.893 90.4103C102.893 90.4103 99.2279 96.3806 89.6247 99.0744ZM52.8979 79.0525C52.8979 74.6111 56.1967 70.9708 60.3752 70.9708C64.5538 70.9708 67.9258 74.6111 67.8524 79.0525C67.8524 83.4938 64.5538 87.134 60.3752 87.134C56.27 87.134 52.8979 83.4938 52.8979 79.0525ZM79.6549 79.0525C79.6549 74.6111 82.9538 70.9708 87.1322 70.9708C91.3109 70.9708 94.6095 74.6111 94.6095 79.0525C94.6095 83.4938 91.3109 87.134 87.1322 87.134C83.0272 87.134 79.6549 83.4938 79.6549 79.0525Z" fill="#082E9A"/>
</svg>
