<svg width="857" height="101" viewBox="0 0 857 101" fill="none"
xmlns="http://www.w3.org/2000/svg">
  <path d="M94.9283 101H72.0521L70.4959 97.8875L50.1097 54.1572L47.4641 48.5547L39.6831 64.8952L29.8791 85.4376L22.5649 101H0L47.4641 0L94.9283 101Z" fill="white"/>
  <path d="M183.787 20.5424L166.202 29.2573C165.269 27.5455 164.335 25.9892 163.09 24.8998C161.845 23.6549 160.444 22.7211 159.044 21.943C157.488 21.1649 155.931 20.698 154.531 20.2311C153.13 19.9199 151.73 19.7643 150.329 19.7643C148.773 19.7643 147.372 19.9199 146.283 20.0755C145.038 20.2311 143.793 20.698 142.392 21.3205C141.303 21.943 140.369 22.7211 139.591 24.1217C138.813 25.3667 138.502 26.923 138.502 28.7904C138.502 30.0354 138.969 31.5917 139.902 33.4592C140.836 35.171 142.392 36.5716 144.415 37.661C144.571 37.661 144.882 37.9723 145.505 38.2835C146.127 38.5948 146.594 38.906 146.594 38.906C147.995 39.8398 149.862 40.7735 152.196 42.0185C153.908 42.9522 155.776 43.886 157.954 44.8197C158.577 45.131 159.199 45.4422 159.666 45.7535C159.977 45.9091 160.6 46.2203 161.378 46.6872C162.779 47.3097 163.712 47.7766 164.179 47.9322C165.113 48.3991 165.891 48.8659 166.825 49.3328C169.782 51.0447 172.116 52.7565 173.828 54.624C175.695 56.6471 177.096 58.6703 178.029 60.6934C178.963 62.7165 179.741 65.0508 180.052 67.2296C180.519 69.2527 180.675 71.4314 180.675 73.9214C180.675 76.567 180.364 79.057 179.741 81.3914C178.963 84.037 178.029 86.3713 176.629 88.2388C175.073 90.4176 173.05 92.4407 170.871 94.1525C168.537 96.02 165.424 97.5763 161.845 98.9769C161.534 99.1325 160.6 99.4437 159.044 99.9106C158.11 100.066 157.021 100.377 155.62 100.533C154.998 100.533 154.375 100.689 153.753 100.689C153.13 100.689 152.508 100.844 151.885 100.844C150.173 100.844 149.084 101 148.773 101C148.462 101 148.15 101 147.995 101C147.217 101 146.594 101 146.127 101C145.816 101 145.349 101 145.038 101C144.727 101 144.415 101 143.949 100.844C143.793 100.844 143.326 100.844 142.237 100.689C140.058 100.377 137.879 99.9106 135.389 99.1325C133.055 98.51 130.721 97.4206 128.231 96.02C125.741 94.6194 123.407 93.0632 121.384 91.0401C119.205 89.0169 117.338 86.6826 115.781 84.037C115.626 83.8814 115.47 83.5701 115.314 83.2589C115.159 82.9476 115.003 82.6364 114.848 82.3251C114.381 81.547 114.069 80.9245 113.914 80.6133L131.032 72.0539H131.343C132.121 73.7658 133.055 75.1664 134.456 76.4114C135.701 77.6564 137.101 78.5901 138.502 79.3683C139.902 79.9908 141.303 80.6133 142.859 80.9245C144.415 81.2357 145.816 81.3914 147.061 81.3914C148.773 81.3914 150.173 81.2357 151.263 81.0801C152.663 80.9245 153.908 80.4576 155.153 79.8351C156.243 79.2126 157.176 78.4345 157.954 77.1895C158.732 75.9445 159.044 74.3883 159.044 72.5208C159.044 68.6302 156.398 65.2065 150.951 62.5609C150.485 62.4052 149.862 62.094 149.084 61.6271C148.306 61.1602 147.372 60.5378 146.127 59.9153C145.505 59.604 145.038 59.2928 144.415 58.9815C143.793 58.6703 143.326 58.359 142.704 58.0478C141.147 57.2696 140.058 56.6471 139.436 56.3359C138.969 56.1803 138.502 55.869 138.035 55.5578C137.413 55.2465 136.79 54.9353 136.168 54.7797C135.701 54.624 135.389 54.3128 134.923 54.1572C134.456 54.0015 133.989 53.6903 133.522 53.379C133.055 53.2234 132.588 52.9122 132.121 52.6009C131.655 52.2897 131.188 52.134 130.721 51.8228C127.92 50.4222 125.585 48.5547 123.718 46.6872C121.851 44.6641 120.45 42.641 119.516 40.4622C118.427 38.4391 117.804 36.2604 117.338 33.926C116.871 31.5917 116.715 29.4129 116.715 27.2342C116.715 27.5455 116.715 26.7673 116.871 24.8998C117.026 22.8767 117.182 21.6317 117.338 21.3205C117.182 21.4761 117.338 21.1649 117.649 20.0755C117.649 19.453 117.804 18.9861 117.96 18.6749C118.116 18.0524 118.427 17.4299 118.738 16.8074C119.049 16.0293 119.361 15.4068 119.827 14.7843C120.45 13.3837 121.539 11.8274 122.94 10.4268C124.029 9.33744 125.274 8.09245 126.986 6.84746C128.542 5.75809 130.098 4.82435 131.499 3.8906C133.055 3.11248 134.611 2.48998 135.856 2.02311C137.879 1.40062 140.058 0.77812 142.392 0.466872C144.571 0.155624 146.75 0 148.773 0C149.084 0 149.24 0 149.551 0C149.551 0 150.173 0.155624 151.418 0.155624C151.73 0.155624 152.041 0.155624 152.508 0.311248C152.819 0.311248 153.286 0.311248 153.597 0.311248C154.064 0.311248 154.686 0.311248 155.464 0.311248C157.332 0.622496 159.511 1.08937 162.156 1.86749C164.646 2.64561 166.98 3.57935 169.315 4.97997C171.805 6.53621 174.139 8.09245 176.006 9.95994C178.185 11.9831 180.052 14.1618 181.609 16.8074L182.387 18.5193C182.542 18.8305 182.698 19.1418 182.854 19.453C183.009 19.7643 183.632 20.2311 183.787 20.5424Z" fill="white"/>
  <path d="M284.162 20.6979H251.482V101H230.94V20.6979H197.949V0.155518H284.162V20.6979Z" fill="white"/>
  <path d="M378.313 101H355.903L338.629 62.4052H327.736V101H307.039V42.0185H327.736H333.027H343.298C343.298 42.0185 343.765 41.8629 344.543 41.7072C345.788 41.2404 346.255 41.0847 346.255 41.0847C348.745 39.9954 350.612 38.5948 351.546 36.7273C352.48 34.8598 352.947 32.9923 352.947 31.1248C352.947 29.4129 352.48 27.5455 351.546 25.5223C350.457 23.6549 348.745 22.0986 346.255 21.1649C345.944 21.0092 345.321 20.8536 344.543 20.5424C343.765 20.3867 343.298 20.3867 343.298 20.3867H333.027H327.736H307.039V0H343.765C344.076 0 344.699 0 345.944 0.155624C346.566 0.155624 347.344 0.466872 348.745 0.77812C349.834 1.08937 350.768 1.24499 351.39 1.55624C352.168 1.71186 352.791 1.86749 353.258 2.17874C355.125 2.95686 357.148 4.04623 359.327 5.29122C361.194 6.38059 363.217 8.09245 365.24 10.2712C367.264 12.6055 368.975 15.0955 370.376 17.5855C371.621 20.0755 372.399 22.5655 373.021 25.2111C373.488 27.3898 373.644 29.4129 373.644 31.4361C373.644 36.1048 372.555 40.6179 370.376 45.2866C368.353 49.9553 364.462 54.1572 359.171 57.8921L378.313 101Z" fill="white"/>
  <path d="M483.512 50.7334C483.512 57.7365 482.267 64.4283 479.621 70.4977C476.976 76.567 473.396 81.8582 468.728 86.3713C464.215 90.8844 458.768 94.4638 452.699 97.1094C446.63 99.755 440.094 101 432.935 101C425.932 101 419.396 99.755 413.327 97.1094C407.258 94.4638 401.811 90.8844 397.298 86.2157C392.63 81.547 389.05 76.2558 386.405 70.3421C383.759 64.1171 382.514 57.5809 382.514 50.5778C382.514 43.5747 383.759 37.1941 386.405 30.9692C388.895 24.8998 392.63 19.6086 397.298 14.7843C401.967 10.1156 407.258 6.53621 413.327 3.8906C419.396 1.24499 425.932 0 432.935 0C440.094 0 446.63 1.40062 452.855 4.04622C458.924 6.69183 464.215 10.4268 468.883 14.9399C473.396 19.453 476.976 24.8998 479.621 31.1248C482.267 37.1941 483.512 43.7304 483.512 50.7334ZM462.97 50.7334C462.97 48.2434 462.659 45.4422 461.881 42.641C461.102 39.6841 459.857 37.0385 458.301 34.5485C456.589 31.9029 454.566 29.5686 452.076 27.5455C449.431 25.3667 446.319 23.6549 442.739 22.2542C441.806 21.943 441.027 21.7874 440.094 21.6317C439.627 21.6317 439.16 21.4761 438.693 21.4761C438.226 21.3205 437.915 21.3205 437.448 21.1649C437.137 21.1649 436.203 21.0092 434.647 20.698C433.246 20.698 432.624 20.5424 432.78 20.5424C430.757 20.5424 428.578 20.8536 426.244 21.3205C424.065 21.943 421.731 22.7211 419.396 23.9661C416.906 25.2111 414.728 26.7673 412.86 28.4792C410.837 30.1911 409.125 32.3698 407.569 35.0154C405.546 38.2835 404.301 41.396 403.834 44.3528C403.679 45.131 403.523 46.2203 403.212 47.4653C403.056 48.3991 403.056 49.4884 403.056 50.5778C403.056 54.624 403.834 58.5146 405.39 61.9384C406.791 65.5177 408.97 68.6302 411.771 71.4314C414.416 74.2327 417.684 76.4114 421.264 77.812C424.843 79.5239 428.733 80.302 432.935 80.302C436.826 80.302 440.716 79.5239 444.451 77.9676C448.03 76.4114 451.143 74.3883 453.944 71.5871C456.745 68.9414 458.924 65.6733 460.48 62.2496C462.192 58.9815 462.97 55.0909 462.97 50.7334Z" fill="white"/>
  <path d="M571.282 101H559.299H554.163H553.541C553.074 101 552.763 101 552.296 100.844C539.535 99.755 528.953 94.4638 520.083 84.9707C511.212 75.4777 507.01 64.2728 507.01 51.356C507.01 51.2003 507.01 50.8891 507.01 50.7335C507.01 50.5778 507.01 50.2666 507.01 50.111C507.01 37.1942 511.368 25.9892 520.083 16.4962C528.797 7.00311 539.535 1.7119 552.296 0.466903C552.763 0.466903 553.074 0.311279 553.541 0.311279H554.163H559.299H571.282V20.698H560.233H556.964C555.097 20.698 553.541 20.8537 551.985 21.1649C551.829 21.1649 551.829 21.1649 551.673 21.1649C551.518 21.1649 551.518 21.1649 551.362 21.1649C549.183 21.6318 547.316 22.2543 545.76 22.8768C545.449 22.8768 545.293 23.0324 545.137 23.0324C544.982 23.0324 544.982 23.188 544.826 23.188C544.671 23.188 544.67 23.188 544.515 23.3436C538.757 25.9892 534.555 29.8798 531.754 34.8598C528.953 39.8398 527.552 45.2866 527.552 51.0447C527.552 51.2003 527.552 51.356 527.552 51.5116C527.552 51.6672 527.552 51.8228 527.552 51.8228V51.9785C527.552 51.9785 527.552 52.1341 527.552 52.2897C527.552 52.4453 527.552 52.4453 527.552 52.4453V52.6009C528.019 60.5378 531.132 67.074 536.889 72.3652C542.647 77.6564 549.339 80.302 556.964 80.302H560.233H571.282V101Z" fill="white"/>
  <path d="M665.898 0.155518L620.302 50.5777L665.743 100.844H638.042L606.607 65.9845V100.844H585.91V0.155518H606.607V35.1709L638.198 0.155518H665.898Z" fill="white"/>
  <path d="M685.195 20.6979V0.155518H756.625V20.5423C744.642 20.5423 732.815 20.5423 720.832 20.5423C708.85 20.5423 697.178 20.6979 685.195 20.6979ZM685.195 60.8489V40.3065C692.821 40.3065 700.446 40.3065 708.072 40.3065C715.697 40.3065 723.322 40.3065 730.948 40.3065V60.6933C723.322 60.6933 715.697 60.6933 708.072 60.6933C700.446 60.8489 692.821 60.8489 685.195 60.8489ZM756.625 101H685.195V80.4575C697.023 80.4575 709.005 80.4575 720.832 80.4575C732.66 80.4575 744.642 80.4575 756.625 80.4575V101Z" fill="white"/>
  <path d="M857 20.6979H824.32V101H803.778V20.6979H770.786V0.155518H857V20.6979Z" fill="white"/>
</svg>
