<svg width="320" height="326" viewBox="0 0 320 326" fill="none"
  xmlns="http://www.w3.org/2000/svg">
  <path d="M210.075 264.538L255.939 242.835L259.624 164.62L219.903 166.667L145.373 242.016L210.075 264.538Z" fill="#FF2842"/>
  <path d="M65.5203 185.803L37.6742 142.564L104.423 117.527L124.898 133.088L66.3393 167.076L65.5203 185.803Z" fill="#FF2842"/>
  <path d="M210.075 264.538L255.939 242.835L259.624 164.62L219.903 166.667L145.373 242.016L210.075 264.538Z" fill="black" fill-opacity="0.38"/>
  <path d="M65.5203 185.803L37.6742 142.564L104.423 117.527L124.898 133.088L66.3393 167.076L65.5203 185.803Z" fill="black" fill-opacity="0.38"/>
  <path d="M191.005 252.174L173.007 264.03L141.918 227.74L180.665 226.916L191.005 252.174Z" fill="#626262"/>
  <path d="M191.005 252.174L173.007 264.03L141.918 227.74L180.665 226.916L191.005 252.174Z" fill="black" fill-opacity="0.38"/>
  <path d="M148.795 280.64C129.866 275.541 123.196 260.095 122.228 253.009L141.918 227.74L173.007 264.03L148.795 280.64Z" fill="#626262"/>
  <path d="M148.795 280.64C129.866 275.541 123.196 260.095 122.228 253.009L141.918 227.74L173.007 264.03L148.795 280.64Z" fill="black" fill-opacity="0.23"/>
  <path d="M153.687 271.491L84.8573 315.933L131.512 247.919L153.28 247.549L153.687 271.491Z" fill="url(#paint0_linear)"/>
  <g filter="url(#filter0_d)">
    <ellipse cx="142.575" cy="267.083" rx="8.19004" ry="12.2692" transform="rotate(-46.8941 142.575 267.083)" fill="#DAF8FF"/>
  </g>
  <path d="M173.007 264.03L148.795 280.64C146.612 258.711 130.174 253.083 122.228 253.009L141.918 227.74C166.112 236.303 172.725 255.501 173.007 264.03Z" fill="#626262"/>
  <path d="M106.634 179.18L89.1282 189.067L62.5064 153.312L98.6204 155.014L106.634 179.18Z" fill="#626262"/>
  <path d="M106.634 179.18L89.1282 189.067L62.5064 153.312L98.6204 155.014L106.634 179.18Z" fill="black" fill-opacity="0.38"/>
  <path d="M65.5364 202.984C48.2438 197.032 43.0204 182.232 42.5703 175.575L62.5063 153.312L89.1281 189.067L65.5364 202.984Z" fill="#626262"/>
  <path d="M65.5364 202.984C48.2438 197.032 43.0204 182.232 42.5703 175.575L62.5063 153.312L89.1281 189.067L65.5364 202.984Z" fill="black" fill-opacity="0.23"/>
  <path d="M70.6718 194.781L3.78146 231.757L51.5353 171.429L71.819 172.472L70.6718 194.781Z" fill="url(#paint1_linear)"/>
  <g filter="url(#filter1_d)">
    <ellipse cx="61.1211" cy="182.525" rx="7.64022" ry="11.4455" transform="rotate(-42.978 61.1211 182.525)" fill="#DAF8FF"/>
  </g>
  <path d="M89.1281 189.067L65.5364 202.984C64.9011 182.436 49.961 176.15 42.5703 175.575L62.5063 153.312C84.477 162.823 89.4086 181.112 89.1281 189.067Z" fill="#626262"/>
  <path d="M319.412 0.00366211L311.812 28.1447L255.939 242.724L209.846 263.608L156.61 227.572L127.765 233.305C121.77 239.028 115.298 244.229 108.419 248.852L82.2722 266.426C73.4471 272.358 63.2041 275.838 52.592 276.51L36.4457 277.531V262.789L34.8077 232.077C42.1626 215.56 58.5563 180.152 65.2915 170.651C54.4169 159.617 48.5488 153.602 37.6742 142.568L49.6972 111.757L319.412 0.00366211Z" fill="white"/>
  <path d="M311.812 28.1447L319.412 0.00366211L217.446 96.5315L106.471 160.414L93.7761 177.613C65.93 205.741 44.4993 244.752 37.2648 260.742L36.4458 277.531L52.5921 276.51C63.2042 275.838 73.4472 272.358 82.2723 266.426L108.419 248.852C115.298 244.229 121.77 239.028 127.765 233.305L156.611 227.572L210.075 264.542L255.939 242.724L311.812 28.1447Z" fill="black" fill-opacity="0.05"/>
  <path d="M256.164 242.831L210.075 264.542L156.61 227.57L221.143 114.888L312.067 28.1997L319.412 0L283.346 14.9479L201.28 88.2546L65.2909 170.651L37.6741 142.565L49.6963 111.754L283.346 14.9479L319.412 0L312.067 28.1997L256.164 242.831Z" fill="#FF2842"/>
  <path d="M134.726 127.355C93.3665 144.964 68.1139 177.041 59.3778 190.009C66.585 187.388 71.6629 189.599 73.7104 191.237L104.833 159.296L108.518 161.753L79.0339 194.513C83.092 195.468 90.8752 204.598 96.9654 212.651C100.673 217.554 106.576 220.387 112.7 219.847L113.433 219.782C115.609 219.59 117.755 219.144 119.827 218.453L125.822 216.455C128.708 215.493 131.303 213.816 133.365 211.579L147.596 196.142C152.044 191.316 155.167 185.421 156.66 179.031L164.62 144.964C166.924 130.299 152.453 121.427 134.726 127.355Z" fill="url(#paint2_radial)"/>
  <path d="M156.66 179.031L164.62 144.964C165.616 138.625 163.477 133.368 159.296 129.921C146.192 130.604 111.794 144.479 79.0341 194.513C83.0921 195.468 90.8753 204.598 96.9655 212.651C100.674 217.554 106.576 220.387 112.7 219.847L113.434 219.782C115.609 219.59 117.755 219.144 119.827 218.453L125.823 216.455C128.708 215.493 131.303 213.816 133.365 211.579L147.596 196.142C152.044 191.316 155.167 185.421 156.66 179.031Z" fill="black" fill-opacity="0.03"/>
  <path d="M15.9706 298.826L11.4661 287.769L8.19006 286.131L13.1041 298.007L15.9706 298.826Z" fill="#FF2842"/>
  <path d="M15.9705 298.826L11.4659 287.769L37.2646 261.97C37.2646 261.97 36.4456 267.703 36.4456 277.531L15.9705 298.826Z" fill="#FF2842"/>
  <path d="M15.9705 298.826L11.4659 287.769L37.2646 261.97C37.2646 261.97 36.4456 267.703 36.4456 277.531L15.9705 298.826Z" fill="black" fill-opacity="0.15"/>
  <path d="M37.2647 262.081L11.466 287.88L3.276 268.633L108.518 161.753C65.5203 208.436 43.1342 245.565 37.2647 262.081Z" fill="white"/>
  <path d="M37.2647 262.081L11.466 287.88L3.276 268.633L108.518 161.753C65.5203 208.436 43.1342 245.565 37.2647 262.081Z" fill="black" fill-opacity="0.15"/>
  <path d="M108.518 161.753L3.27602 268.633L0 266.586L104.833 159.296L108.518 161.753Z" fill="white"/>
  <path d="M108.518 161.753L3.27602 268.633L0 266.586L104.833 159.296L108.518 161.753Z" fill="black" fill-opacity="0.08"/>
  <path d="M11.4661 287.879L3.27602 268.633L0 266.585L8.19004 286.241L11.4661 287.879Z" fill="#F2F2F2"/>
  <defs>
    <filter id="filter0_d" x="124.021" y="248.72" width="37.1085" height="36.7272" filterUnits="userSpaceOnUse" color-interpolation-filters="sRGB">
      <feFlood flood-opacity="0" result="BackgroundImageFix"/>
      <feColorMatrix in="SourceAlpha" type="matrix" values="0 0 0 0 0 0 0 0 0 0 0 0 0 0 0 0 0 0 127 0"/>
      <feOffset/>
      <feGaussianBlur stdDeviation="2"/>
      <feColorMatrix type="matrix" values="0 0 0 0 1 0 0 0 0 1 0 0 0 0 1 0 0 0 1 0"/>
      <feBlend mode="normal" in2="BackgroundImageFix" result="effect1_dropShadow"/>
      <feBlend mode="normal" in="SourceGraphic" in2="effect1_dropShadow" result="shape"/>
    </filter>
    <filter id="filter1_d" x="43.7288" y="164.943" width="34.7846" height="35.1644" filterUnits="userSpaceOnUse" color-interpolation-filters="sRGB">
      <feFlood flood-opacity="0" result="BackgroundImageFix"/>
      <feColorMatrix in="SourceAlpha" type="matrix" values="0 0 0 0 0 0 0 0 0 0 0 0 0 0 0 0 0 0 127 0"/>
      <feOffset/>
      <feGaussianBlur stdDeviation="2"/>
      <feColorMatrix type="matrix" values="0 0 0 0 1 0 0 0 0 1 0 0 0 0 1 0 0 0 1 0"/>
      <feBlend mode="normal" in2="BackgroundImageFix" result="effect1_dropShadow"/>
      <feBlend mode="normal" in="SourceGraphic" in2="effect1_dropShadow" result="shape"/>
    </filter>
    <linearGradient id="paint0_linear" x1="164.198" y1="238.081" x2="85.5433" y2="315.577" gradientUnits="userSpaceOnUse">
      <stop offset="0.265625" stop-color="#6EE5FF"/>
      <stop offset="1" stop-color="#C9F5FF" stop-opacity="0"/>
    </linearGradient>
    <linearGradient id="paint1_linear" x1="82.5827" y1="164.355" x2="4.44264" y2="231.469" gradientUnits="userSpaceOnUse">
      <stop offset="0.265625" stop-color="#6EE5FF"/>
      <stop offset="1" stop-color="#C9F5FF" stop-opacity="0"/>
    </linearGradient>
    <radialGradient id="paint2_radial" cx="0" cy="0" r="1" gradientUnits="userSpaceOnUse" gradientTransform="translate(112.204 172.699) rotate(90) scale(67.1584 75.7005)">
      <stop stop-color="#CEF6FF"/>
      <stop offset="1" stop-color="#1BCBF1"/>
    </radialGradient>
  </defs>
</svg>
