<svg width="148" height="149" viewBox="0 0 148 149" fill="none" xmlns="http://www.w3.org/2000/svg">
<path fill-rule="evenodd" clip-rule="evenodd" d="M148 74.5C148 115.366 114.866 148.5 74 148.5C33.1335 148.5 0 115.366 0 74.5C0 33.6335 33.1335 0.5 74 0.5C114.866 0.5 148 33.6335 148 74.5ZM121.409 68.691C122.606 70.3992 123.284 72.4157 123.358 74.5C123.39 76.5391 122.844 78.5457 121.784 80.2874C120.723 82.0292 119.191 83.435 117.364 84.342C117.45 85.4273 117.45 86.5127 117.364 87.598C117.364 104.174 98.05 117.642 74.222 117.642C50.394 117.642 31.08 104.174 31.08 87.598C30.9967 86.5143 30.9967 85.4257 31.08 84.342C29.6689 83.6814 28.4176 82.7232 27.412 81.533C26.4064 80.3429 25.6705 78.9491 25.2548 77.4475C24.8391 75.946 24.7535 74.3722 25.0038 72.8343C25.2541 71.2965 25.8345 69.8311 26.705 68.5389C27.5755 67.2467 28.7154 66.1583 30.0465 65.3485C31.3776 64.5388 32.8683 64.0268 34.4161 63.8479C35.9638 63.669 37.532 63.8274 39.0127 64.3121C40.4934 64.7968 41.8517 65.5965 42.994 66.656C51.5208 60.8731 61.5523 57.7093 71.854 57.554L77.33 31.876C77.3915 31.5787 77.5114 31.2966 77.6827 31.046C77.854 30.7954 78.0734 30.5813 78.3281 30.4161C78.5827 30.2509 78.8677 30.1379 79.1663 30.0837C79.465 30.0294 79.7715 30.035 80.068 30.1L98.198 33.726C99.0834 32.2048 100.482 31.0491 102.143 30.4661C103.803 29.8832 105.618 29.9113 107.259 30.5454C108.901 31.1795 110.263 32.378 111.101 33.9258C111.939 35.4737 112.198 37.2695 111.831 38.9909C111.464 40.7123 110.496 42.2466 109.1 43.3184C107.703 44.3901 105.971 44.9292 104.213 44.8387C102.456 44.7483 100.788 44.0343 99.5089 42.8249C98.2301 41.6155 97.4243 39.99 97.236 38.24L81.4 34.91L76.59 57.998C86.7665 58.2163 96.6619 61.3777 105.08 67.1C106.204 66.0195 107.548 65.1952 109.021 64.6837C110.493 64.1722 112.059 63.9856 113.611 64.1368C115.162 64.2879 116.663 64.7733 118.009 65.5594C119.355 66.3456 120.515 67.4139 121.409 68.691V68.691ZM50.6037 77.7868C50.0635 78.595 49.6878 79.5017 49.4981 80.4551C49.3083 81.4085 49.3082 82.3899 49.4978 83.3433C49.8806 85.2689 51.0126 86.9635 52.6448 88.0543C54.2771 89.1452 56.2758 89.543 58.2013 89.1602C59.1547 88.9707 60.0615 88.5952 60.8698 88.0552C61.6781 87.5153 62.3722 86.8214 62.9123 86.0132C64.0032 84.3809 64.401 82.3822 64.0182 80.4567C63.6354 78.5311 62.5034 76.8365 60.8712 75.7457C59.2389 74.6548 57.2402 74.257 55.3147 74.6398C53.3891 75.0226 51.6945 76.1546 50.6037 77.7868ZM74.074 107.948C80.6415 108.219 87.1042 106.505 92.352 102.546C92.7445 102.163 92.9689 101.64 92.9759 101.092C92.9828 100.544 92.7717 100.016 92.389 99.623C92.1995 99.4286 91.9736 99.2735 91.7241 99.1665C91.4747 99.0594 91.2066 99.0026 90.9352 98.9991C90.387 98.9922 89.8585 99.2033 89.466 99.586C84.975 102.808 79.5189 104.4 74 104.1C68.4879 104.346 63.0571 102.701 58.608 99.438C58.2246 99.1233 57.7378 98.9625 57.2424 98.9868C56.747 99.0112 56.2784 99.2189 55.9276 99.5696C55.5769 99.9204 55.3692 100.389 55.3448 100.884C55.3205 101.38 55.4813 101.867 55.796 102.25C61.0461 106.206 67.5056 108.22 74.074 107.948V107.948ZM86.9068 88.3503C88.1278 89.1643 89.4845 89.892 90.946 89.892C91.9497 89.9037 92.9452 89.711 93.8719 89.3255C94.7987 88.94 95.6373 88.3699 96.3365 87.6498C97.0358 86.9298 97.5812 86.0749 97.9394 85.1373C98.2975 84.1996 98.4611 83.1989 98.42 82.196C98.4195 80.9178 98.088 79.6615 97.4576 78.5495C96.8272 77.4375 95.9196 76.5077 94.8231 75.8508C93.7266 75.1939 92.4786 74.8322 91.2008 74.801C89.9229 74.7697 88.6588 75.0701 87.5315 75.6726C86.4042 76.2752 85.4522 77.1595 84.7683 78.2394C84.0844 79.3193 83.6919 80.5579 83.629 81.8346C83.5661 83.1113 83.8349 84.3825 84.4094 85.5244C84.9838 86.6662 85.8442 87.6398 86.9068 88.3503V88.3503Z" fill="#082E9A"/>
</svg>
