<svg width="148" height="149" viewBox="0 0 148 149" fill="none" xmlns="http://www.w3.org/2000/svg">
<path d="M74 0.5C33.1348 0.5 0 33.6348 0 74.5C0 115.365 33.1348 148.5 74 148.5C114.865 148.5 148 115.365 148 74.5C148 33.6348 114.865 0.5 74 0.5ZM109.563 56.2808C109.612 57.0571 109.612 57.8665 109.612 58.6594C109.612 82.9076 91.1455 110.839 57.3996 110.839C46.9933 110.839 37.3469 107.817 29.2201 102.613C30.7067 102.779 32.1272 102.845 33.6469 102.845C42.2362 102.845 50.1317 99.9375 56.425 95.0152C48.3643 94.85 41.592 89.5643 39.2795 82.2964C42.104 82.7094 44.6478 82.7094 47.5549 81.9661C43.4044 81.1228 39.6738 78.8687 36.997 75.5866C34.3201 72.3045 32.8621 68.1969 32.8705 63.9616V63.7304C35.2987 65.1013 38.1562 65.9437 41.146 66.0594C38.6327 64.3844 36.5715 62.1151 35.1452 59.4527C33.719 56.7904 32.9717 53.8172 32.9696 50.7969C32.9696 47.3777 33.8616 44.2558 35.4638 41.5469C40.0707 47.2181 45.8194 51.8564 52.3362 55.1603C58.8531 58.4643 65.9923 60.3599 73.2897 60.7241C70.6964 48.2531 80.0125 38.1607 91.2116 38.1607C96.4973 38.1607 101.254 40.3741 104.608 43.942C108.754 43.1656 112.718 41.6129 116.253 39.5317C114.882 43.7768 112.008 47.3612 108.192 49.6241C111.892 49.2277 115.46 48.2036 118.763 46.7665C116.269 50.4335 113.147 53.6875 109.563 56.2808V56.2808Z" fill="#082E9A"/>
</svg>
