<svg width="32" height="38" viewBox="0 0 32 38" fill="#000000" xmlns="http://www.w3.org/2000/svg">
  <path d="M2.8297 16.3025L2.59795 16.7456L2.8297 16.3025C2.62115 16.1934 2.3917 16.1345 2.15577 16.1345C1.91985 16.1345 1.6904 16.1934 1.48185 16.3025C1.27399 16.4112 1.09352 16.5662 0.946854 16.7515L1.33895 17.0618L0.947619 16.7506C0.800606 16.9354 0.688381 17.1492 0.613171 17.3777C0.537931 17.6063 0.5 17.8485 0.5 18.0914C0.5 18.3343 0.537931 18.5766 0.613171 18.8052C0.688346 19.0335 0.800503 19.2473 0.947415 19.4321C0.947483 19.4321 0.947551 19.4322 0.947619 19.4323L14.7914 36.8831C14.9381 37.0684 15.1185 37.2233 15.3264 37.332C15.5349 37.4411 15.7644 37.5 16.0003 37.5C16.2362 37.5 16.4657 37.4411 16.6742 37.332C16.8821 37.2233 17.0625 37.0684 17.2092 36.8831L31.0534 19.4318L30.6617 19.1211L31.0534 19.4318C31.3478 19.0607 31.5 18.5775 31.5 18.0914C31.5 17.6053 31.3478 17.1221 31.0534 16.751L30.663 17.0607L31.0534 16.751C30.7567 16.377 30.3261 16.1353 29.8448 16.1353C29.3636 16.1353 28.933 16.377 28.6363 16.751L28.6363 16.7511L16.0003 32.6821L3.36469 16.7515C3.36465 16.7515 3.3646 16.7514 3.36456 16.7513C3.21791 16.5661 3.03749 16.4112 2.8297 16.3025Z" fill="#000000" stroke="#000000"/>
  <path d="M28.6363 1.11651L28.6363 1.11655L16.0003 17.0476L3.36469 1.11699C3.36465 1.11694 3.3646 1.11688 3.36455 1.11682C3.21791 0.931543 3.03749 0.776694 2.8297 0.668005C2.62115 0.558917 2.3917 0.5 2.15577 0.5C1.91984 0.5 1.6904 0.558917 1.48185 0.668004C1.27399 0.776729 1.09352 0.93164 0.946854 1.11699L1.33895 1.42726L0.947619 1.11603C0.800606 1.30088 0.688381 1.51471 0.613171 1.74318C0.537931 1.97174 0.5 2.21403 0.5 2.45691C0.5 2.69979 0.537931 2.94207 0.613171 3.17064C0.688331 3.39896 0.800459 3.61266 0.947328 3.79742C0.947425 3.79754 0.947522 3.79767 0.947619 3.79779L14.7914 21.2485C14.9381 21.4339 15.1185 21.5888 15.3264 21.6975C15.5349 21.8066 15.7644 21.8655 16.0003 21.8655C16.2362 21.8655 16.4657 21.8066 16.6742 21.6975C16.8821 21.5888 17.0625 21.4339 17.2092 21.2485L31.0534 3.79731C31.2001 3.61239 31.312 3.39861 31.3871 3.17024C31.4622 2.94177 31.5 2.69964 31.5 2.45691C31.5 2.21418 31.4622 1.97205 31.3871 1.74358C31.312 1.51521 31.2001 1.30142 31.0534 1.11651C30.9066 0.931474 30.7261 0.776874 30.5183 0.668386C30.3098 0.559536 30.0806 0.500763 29.8448 0.500763C29.6091 0.500763 29.3798 0.559536 29.1713 0.668385C28.9636 0.776874 28.7831 0.931476 28.6363 1.11651Z" fill="#000000" stroke="#000000"/>
</svg>
